<?xml version="1.0" encoding="UTF-8"?>
<svg id="Layer_2" data-name="Layer 2" xmlns="http://www.w3.org/2000/svg" viewBox="0 0 98.36 108.89">
  <defs>
    <style>
      .cls-1 {
        fill: #000000;
        fill-rule: evenodd;
      }
    </style>
  </defs>
  <g id="Layer_1-2" data-name="Layer 1">
    <path class="cls-1" d="M91.04,61.69l-12.81-7.4,12.81-7.4c6.92-4.09,9.44-12.9,5.35-19.83s-12.9-9.13-19.83-5.35l-12.9,7.45v-14.69c0-8.18-6.61-14.48-14.48-14.48s-14.48,6.29-14.48,14.48v14.69l-12.9-7.45c-2.27-1.23-4.73-1.83-7.17-1.83-5.01,0-9.9,2.52-12.66,7.18-4.09,6.92-1.57,15.74,5.35,19.83l12.81,7.4-12.81,7.4C2.66,64.44,0,69.32,0,74.34c0,2.44.63,4.91,1.97,7.18,4.09,6.92,12.9,9.44,19.83,5.35l12.9-7.45v15c0,3.93,1.65,7.55,4.29,10.19,2.64,2.64,6.26,4.29,10.19,4.29,7.87,0,14.48-6.61,14.48-14.48v-15l12.9,7.45c6.92,4.09,15.74,1.57,19.83-5.35s1.57-15.74-5.35-19.83ZM67.43,28.95c6.29-3.46,14.16-1.26,17.62,4.72s1.26,13.85-4.72,17.31l-3.92,2.26-12.76-7.36v-14.74l3.78-2.19ZM36.28,25.81c0-7.24,5.98-12.9,12.9-12.9s12.9,5.66,12.9,12.9v4.26l-12.9,7.45-12.9-7.45v-4.26ZM18.02,50.98c-5.98-3.46-8.18-11.33-4.72-17.31,2.34-4.05,6.71-6.37,11.14-6.37,2.11,0,4.24.53,6.17,1.65l4.09,2.36v14.57l-12.77,7.37-3.91-2.27ZM30.61,79.62c-5.98,3.46-13.85,1.57-17.31-4.72-1.12-1.93-1.65-4.06-1.65-6.17,0-4.43,2.32-8.79,6.37-11.14l3.91-2.27,12.77,7.37v14.57l-4.09,2.36ZM62.08,83.09c0,6.92-5.98,12.59-12.9,12.59-3.46,0-6.69-1.42-9.05-3.7s-3.86-5.43-3.86-8.89v-4.58l12.9-7.45,12.9,7.45v4.58ZM85.06,74.9c-3.46,6.29-11.33,8.18-17.62,4.72l-3.78-2.19v-14.74l12.76-7.36,3.92,2.26c5.98,3.46,8.18,11.33,4.72,17.31Z"/>
  </g>
</svg>